<svg width="160" height="160" viewBox="0 0 160 160" fill="none" xmlns="http://www.w3.org/2000/svg">
<rect width="160" height="160" fill="white"/>
<path d="M32.96 22.5H127.04C129.398 22.5 131.012 22.5021 132.26 22.6074C133.324 22.6973 133.948 22.8516 134.393 23.0508L134.573 23.1396C135.487 23.6233 136.245 24.3537 136.761 25.2461L136.86 25.4268C137.102 25.8835 137.29 26.5232 137.393 27.7402C137.498 28.9881 137.5 30.6016 137.5 32.96V127.04C137.5 129.398 137.498 131.012 137.393 132.26C137.303 133.324 137.148 133.948 136.949 134.393L136.86 134.573C136.377 135.487 135.646 136.245 134.754 136.761L134.573 136.86C134.117 137.102 133.477 137.29 132.26 137.393C131.012 137.498 129.398 137.5 127.04 137.5H32.96C30.6016 137.5 28.9881 137.498 27.7402 137.393C26.6756 137.303 26.0525 137.148 25.6074 136.949L25.4268 136.86C24.5132 136.377 23.7555 135.646 23.2393 134.754L23.1396 134.573C22.8979 134.117 22.7101 133.477 22.6074 132.26C22.5021 131.012 22.5 129.398 22.5 127.04V32.96C22.5 30.6016 22.5021 28.9881 22.6074 27.7402C22.6973 26.6756 22.8516 26.0525 23.0508 25.6074L23.1396 25.4268C23.6233 24.5132 24.3537 23.7555 25.2461 23.2393L25.4268 23.1396C25.8835 22.8979 26.5232 22.7101 27.7402 22.6074C28.9881 22.5021 30.6016 22.5 32.96 22.5Z" stroke="black" stroke-width="5"/>
<path d="M54.4936 106.757C75.0963 97.0974 85.9698 97.7549 104.494 106.757" stroke="black" stroke-width="6"/>
<path d="M55.4936 106.257C42.9936 112.257 40.4936 101.257 44.9936 94.7566C39.9936 91.2566 40.9936 77.7567 49.9936 76.2566C46.9936 69.7567 51.4936 62.7567 58.9936 64.7566C58.4936 58.2567 64.4936 53.7566 70.9936 57.2566C73.4936 50.7566 82.9936 49.7567 87.4936 57.2567C93.4936 54.2566 99.9936 57.2567 99.9936 64.7566C107.494 62.2567 115.494 67.2567 110.994 76.2566C118.494 78.7566 119.494 90.7566 113.994 94.7566C118.494 100.257 115.494 112.757 103.494 106.257" stroke="black" stroke-width="6"/>
<path d="M56.4936 88.7566C66.9936 64.2566 90.9936 65.7565 103.494 85.7566" stroke="black" stroke-width="6"/>
</svg>
