<svg width="160" height="160" viewBox="0 0 160 160" fill="none" xmlns="http://www.w3.org/2000/svg">
<rect width="160" height="160" fill="white"/>
<path d="M32.96 22.5H127.04C129.398 22.5 131.012 22.5021 132.26 22.6074C133.324 22.6973 133.948 22.8516 134.393 23.0508L134.573 23.1396C135.487 23.6233 136.245 24.3537 136.761 25.2461L136.86 25.4268C137.102 25.8835 137.29 26.5232 137.393 27.7402C137.498 28.9881 137.5 30.6016 137.5 32.96V127.04C137.5 129.398 137.498 131.012 137.393 132.26C137.303 133.324 137.148 133.948 136.949 134.393L136.86 134.573C136.377 135.487 135.646 136.245 134.754 136.761L134.573 136.86C134.117 137.102 133.477 137.29 132.26 137.393C131.012 137.498 129.398 137.5 127.04 137.5H32.96C30.6016 137.5 28.9881 137.498 27.7402 137.393C26.6756 137.303 26.0525 137.148 25.6074 136.949L25.4268 136.86C24.5132 136.377 23.7555 135.646 23.2393 134.754L23.1396 134.573C22.8979 134.117 22.7101 133.477 22.6074 132.26C22.5021 131.012 22.5 129.398 22.5 127.04V32.96C22.5 30.6016 22.5021 28.9881 22.6074 27.7402C22.6973 26.6756 22.8516 26.0525 23.0508 25.6074L23.1396 25.4268C23.6233 24.5132 24.3537 23.7555 25.2461 23.2393L25.4268 23.1396C25.8835 22.8979 26.5232 22.7101 27.7402 22.6074C28.9881 22.5021 30.6016 22.5 32.96 22.5Z" stroke="black" stroke-width="5"/>
<path d="M59 99.5V105.935C59 109.097 59 110 61.3889 110C63.2499 110 87.6667 110 99.6111 110C102 110 102 108.465 102 105.935C102 103.406 102 98.2581 102 96" stroke="black" stroke-width="6"/>
<path d="M64 88.1562C66.4561 102.043 87.9872 104.231 92 85" stroke="black" stroke-width="6"/>
<path d="M65.8827 72C64.1426 65.7036 63.7946 52.3874 76.3234 49.4938C88.8522 46.6001 94.6615 57.1298 96 62.7564" stroke="black" stroke-width="6"/>
<path d="M93.5 95C93.5 95 92.1671 95 104.044 95C115.92 92.6531 118.588 84.8295 117.9 77.0059C116.316 59.0117 90.9794 62.9234 89 69.5734" stroke="black" stroke-width="6"/>
<path d="M61 62.5C56.8823 62.5 42.5 66 42 78.1966C42 85 44 93 57 94.5C63 94.5 66.5 94.5 66 94.5" stroke="black" stroke-width="6"/>
</svg>
