<svg width="160" height="160" viewBox="0 0 160 160" fill="none" xmlns="http://www.w3.org/2000/svg">
<rect width="160" height="160" fill="white"/>
<path d="M32.96 22.5H127.04C129.398 22.5 131.012 22.5021 132.26 22.6074C133.324 22.6973 133.948 22.8516 134.393 23.0508L134.573 23.1396C135.487 23.6233 136.245 24.3537 136.761 25.2461L136.86 25.4268C137.102 25.8835 137.29 26.5232 137.393 27.7402C137.498 28.9881 137.5 30.6016 137.5 32.96V127.04C137.5 129.398 137.498 131.012 137.393 132.26C137.303 133.324 137.148 133.948 136.949 134.393L136.86 134.573C136.377 135.487 135.646 136.245 134.754 136.761L134.573 136.86C134.117 137.102 133.477 137.29 132.26 137.393C131.012 137.498 129.398 137.5 127.04 137.5H32.96C30.6016 137.5 28.9881 137.498 27.7402 137.393C26.6756 137.303 26.0525 137.148 25.6074 136.949L25.4268 136.86C24.5132 136.377 23.7555 135.646 23.2393 134.754L23.1396 134.573C22.8979 134.117 22.7101 133.477 22.6074 132.26C22.5021 131.012 22.5 129.398 22.5 127.04V32.96C22.5 30.6016 22.5021 28.9881 22.6074 27.7402C22.6973 26.6756 22.8516 26.0525 23.0508 25.6074L23.1396 25.4268C23.6233 24.5132 24.3537 23.7555 25.2461 23.2393L25.4268 23.1396C25.8835 22.8979 26.5232 22.7101 27.7402 22.6074C28.9881 22.5021 30.6016 22.5 32.96 22.5Z" stroke="black" stroke-width="5"/>
<path d="M112.947 100C113.442 104.286 110.375 105.657 108 106" stroke="black" stroke-width="4"/>
<path d="M86.7446 110.894C78.6271 112.615 71.8626 111.372 66 110.894C67.3529 112.806 76.3723 119.976 92.1562 119.976C102 119.5 108.241 113.762 108.842 110.894C109.744 106.592 106.587 103.898 104.332 103.246C99.3717 101.812 95.5385 107.07 94.4111 108.026C92.1562 109.938 88.5485 110.511 86.7446 110.894Z" stroke="black" stroke-width="5"/>
<path d="M95.5 107L96.2479 85.8654" stroke="black" stroke-width="4"/>
<line x1="97" y1="88" x2="79" y2="88" stroke="black" stroke-width="4"/>
<path d="M79.8641 85.8892L80.5 108" stroke="black" stroke-width="4"/>
<path d="M81 95.5266C83 96.5266 84.5 97.0266 89 95.5269C91.5 94.5269 93 95.1982 95 95.5268" stroke="black" stroke-width="3"/>
<path d="M65.5 117H61.8668C61.1094 117 59.322 116.452 58.2314 114.258C58.2314 112.43 55.0505 76.0634 55.0505 75.4172C55.0505 74.5033 54.5961 73.5894 56.4137 71.3046L67.7742 60.7947C68.2286 60.3377 69.1375 59.4238 69.1375 58.053V48H75.9537V58.053C75.9537 59.4238 77.317 60.3377 77.7714 60.7947C78.2258 61.2517 82.77 65.3642 89.5863 71.3046C91.4039 73.1325 90.9495 74.9603 90.9495 75.4172C90.9495 75.8742 90.6515 82.4106 90.5 85" stroke="black" stroke-width="5"/>
<path d="M56 77.4811C59.6757 79.8282 64.5817 79.4091 73 76.5423C81.2703 73.7258 86.3243 75.4125 90 76.5422" stroke="black" stroke-width="3"/>
<path d="M69 42C69 40.8954 69.8954 40 71 40H75C76.1046 40 77 40.8954 77 42V46H69V42Z" fill="black"/>
</svg>
