<svg width="160" height="160" viewBox="0 0 160 160" fill="none" xmlns="http://www.w3.org/2000/svg">
<rect width="160" height="160" fill="white"/>
<path d="M32.96 22.5H127.04C129.398 22.5 131.012 22.5021 132.26 22.6074C133.324 22.6973 133.948 22.8516 134.393 23.0508L134.573 23.1396C135.487 23.6233 136.245 24.3537 136.761 25.2461L136.86 25.4268C137.102 25.8835 137.29 26.5232 137.393 27.7402C137.498 28.9881 137.5 30.6016 137.5 32.96V127.04C137.5 129.398 137.498 131.012 137.393 132.26C137.303 133.324 137.148 133.948 136.949 134.393L136.86 134.573C136.377 135.487 135.646 136.245 134.754 136.761L134.573 136.86C134.117 137.102 133.477 137.29 132.26 137.393C131.012 137.498 129.398 137.5 127.04 137.5H32.96C30.6016 137.5 28.9881 137.498 27.7402 137.393C26.6756 137.303 26.0525 137.148 25.6074 136.949L25.4268 136.86C24.5132 136.377 23.7555 135.646 23.2393 134.754L23.1396 134.573C22.8979 134.117 22.7101 133.477 22.6074 132.26C22.5021 131.012 22.5 129.398 22.5 127.04V32.96C22.5 30.6016 22.5021 28.9881 22.6074 27.7402C22.6973 26.6756 22.8516 26.0525 23.0508 25.6074L23.1396 25.4268C23.6233 24.5132 24.3537 23.7555 25.2461 23.2393L25.4268 23.1396C25.8835 22.8979 26.5232 22.7101 27.7402 22.6074C28.9881 22.5021 30.6016 22.5 32.96 22.5Z" stroke="black" stroke-width="5"/>
<path d="M78 76C76.8 80.8 70.8 88.4 70 94" stroke="black" stroke-width="2"/>
<path d="M73 47C71.4298 59.2463 71.4298 62.0115 65.1489 68.3322C55.335 76.628 46.3063 79.7884 42.7733 93.2198C38.4552 113.367 52.9797 120.083 67.5042 115.737" stroke="black" stroke-width="6"/>
<path d="M77.2536 43C76.4731 57.1647 76.0829 66.2144 70.2292 78.0183C62.4244 90.6092 60.083 109.102 67.4976 115.004C74.1317 120.906 86.8795 119.726 92.0827 115.004C95.5515 111.856 102.229 97.6915 89.7413 77.2314C81.5462 59.5255 82.3267 48.902 82.3267 43" stroke="black" stroke-width="6"/>
<path d="M87 47C87 52.1691 89.7007 64.4953 97.0311 70.062C107.448 77.2192 119.408 83.9788 117.865 103.86C117.093 113.8 103.204 120.56 93.173 114.993" stroke="black" stroke-width="6"/>
<path d="M70 47C70 45.8954 70.8954 45 72 45H78V49H70V47Z" fill="black"/>
<path d="M74 43C74 41.8954 74.8954 41 76 41H84C85.1046 41 86 41.8954 86 43V45H74V43Z" fill="black"/>
<path d="M82 45H88C89.1046 45 90 45.8954 90 47V49H82V45Z" fill="black"/>
<path d="M65 77C59.5 79.5 55.4394 83.4167 51.5 88" stroke="black" stroke-width="2"/>
<path d="M48.5 103.5C50.2778 106.39 52.8889 110.368 60 109.955" stroke="black" stroke-width="2"/>
<path d="M69.3403 98C68.531 100.724 68.4611 111.661 77.433 112.786C86.7397 113.954 88.7861 108.835 90 106.5" stroke="black" stroke-width="2"/>
<path d="M91 99C90.2 91.9756 87.9 86.0122 85.5 82.5" stroke="black" stroke-width="2"/>
<path d="M99 79C101.533 80.3542 108.44 85.825 111 92" stroke="black" stroke-width="2"/>
<path d="M112 101C112 103.242 110.235 112.208 100 110.863" stroke="black" stroke-width="2"/>
</svg>
