<svg width="160" height="160" viewBox="0 0 160 160" fill="none" xmlns="http://www.w3.org/2000/svg">
<rect width="160" height="160" fill="white"/>
<path d="M32.96 22.5H127.04C129.398 22.5 131.012 22.5021 132.26 22.6074C133.324 22.6973 133.948 22.8516 134.393 23.0508L134.573 23.1396C135.487 23.6233 136.245 24.3537 136.761 25.2461L136.86 25.4268C137.102 25.8835 137.29 26.5232 137.393 27.7402C137.498 28.9881 137.5 30.6016 137.5 32.96V127.04C137.5 129.398 137.498 131.012 137.393 132.26C137.303 133.324 137.148 133.948 136.949 134.393L136.86 134.573C136.377 135.487 135.646 136.245 134.754 136.761L134.573 136.86C134.117 137.102 133.477 137.29 132.26 137.393C131.012 137.498 129.398 137.5 127.04 137.5H32.96C30.6016 137.5 28.9881 137.498 27.7402 137.393C26.6756 137.303 26.0525 137.148 25.6074 136.949L25.4268 136.86C24.5132 136.377 23.7555 135.646 23.2393 134.754L23.1396 134.573C22.8979 134.117 22.7101 133.477 22.6074 132.26C22.5021 131.012 22.5 129.398 22.5 127.04V32.96C22.5 30.6016 22.5021 28.9881 22.6074 27.7402C22.6973 26.6756 22.8516 26.0525 23.0508 25.6074L23.1396 25.4268C23.6233 24.5132 24.3537 23.7555 25.2461 23.2393L25.4268 23.1396C25.8835 22.8979 26.5232 22.7101 27.7402 22.6074C28.9881 22.5021 30.6016 22.5 32.96 22.5Z" stroke="black" stroke-width="5"/>
<path d="M52.3063 62.8807C52.6574 73.0495 52.4526 97.5683 52.3063 109.11C52.1601 111.594 52.5333 116.546 57.1332 117H93.9931C98.32 116.546 99.2588 111.916 99.2588 109.11C99.2588 108.043 99.2588 105.472 99.2588 98.591M99.2588 62.2114C99.2588 64.2912 99.2588 66.6659 99.2588 69.2243M99.2588 98.591C105.12 97.4716 106.933 96.5633 108.913 94.6462C111.622 92.0218 114.88 87.0197 115.934 75.7989C116.987 64.5782 105.256 66.7406 99.2588 69.2243M99.2588 98.591C99.2588 89.8346 99.2588 78.3587 99.2588 69.2243M77.7572 59.5815C72.0527 62.2114 70.2133 66.5421 63.2766 59.5815C60.24 63.088 49.36 67.4504 48 55.6425C48 41.5639 59.3333 46.1529 61.9601 47.7472C64.32 42.5198 73.3867 37.9783 79.0737 47.7472C81.1214 45.1173 86.08 43.428 90.0439 48.6237C94.7245 45.8477 104.924 45.2446 105.573 54.3276C105.12 67.0437 91.3603 60.8964 90.0439 59.5815C87.8498 61.0425 84.7782 66.8574 90.0439 78.4287C96.626 92.8929 70.2133 92.9302 77.7572 78.4287C81.2185 71.7751 80.64 62.2114 77.7572 59.5815Z" stroke="black" stroke-width="5"/>
<line x1="54" y1="74" x2="79" y2="74" stroke="black" stroke-width="6"/>
<line x1="90" y1="74" x2="100" y2="74" stroke="black" stroke-width="6"/>
</svg>
