<svg width="160" height="160" viewBox="0 0 160 160" fill="none" xmlns="http://www.w3.org/2000/svg">
<rect width="160" height="160" fill="white"/>
<path d="M32.96 22.5H127.04C129.398 22.5 131.012 22.5021 132.26 22.6074C133.324 22.6973 133.948 22.8516 134.393 23.0508L134.573 23.1396C135.487 23.6233 136.245 24.3537 136.761 25.2461L136.86 25.4268C137.102 25.8835 137.29 26.5232 137.393 27.7402C137.498 28.9881 137.5 30.6016 137.5 32.96V127.04C137.5 129.398 137.498 131.012 137.393 132.26C137.303 133.324 137.148 133.948 136.949 134.393L136.86 134.573C136.377 135.487 135.646 136.245 134.754 136.761L134.573 136.86C134.117 137.102 133.477 137.29 132.26 137.393C131.012 137.498 129.398 137.5 127.04 137.5H32.96C30.6016 137.5 28.9881 137.498 27.7402 137.393C26.6756 137.303 26.0525 137.148 25.6074 136.949L25.4268 136.86C24.5132 136.377 23.7555 135.646 23.2393 134.754L23.1396 134.573C22.8979 134.117 22.7101 133.477 22.6074 132.26C22.5021 131.012 22.5 129.398 22.5 127.04V32.96C22.5 30.6016 22.5021 28.9881 22.6074 27.7402C22.6973 26.6756 22.8516 26.0525 23.0508 25.6074L23.1396 25.4268C23.6233 24.5132 24.3537 23.7555 25.2461 23.2393L25.4268 23.1396C25.8835 22.8979 26.5232 22.7101 27.7402 22.6074C28.9881 22.5021 30.6016 22.5 32.96 22.5Z" stroke="black" stroke-width="5"/>
<path d="M93.8242 74L98.8486 108.16C95.9158 110.153 91.8545 110.943 87.1543 108.379L86.1826 107.849L85.2168 108.392C81.8724 110.271 77.3599 110.54 73.834 108.421L72.8135 107.808L71.7881 108.411C67.9513 110.67 63.3838 110.329 60.1562 108.167L65.3574 74H93.8242Z" stroke="black" stroke-width="4"/>
<path d="M70 98C70 96.8954 70.8954 96 72 96C73.1046 96 74 96.8954 74 98V108H70V98Z" fill="black"/>
<path d="M84 101C84 99.8954 84.8954 99 86 99C87.1046 99 88 99.8954 88 101V109H84V101Z" fill="black"/>
<circle cx="6.5" cy="6.5" r="4.5" transform="matrix(-1 0 0 1 59 47)" stroke="black" stroke-width="4"/>
<circle cx="106.5" cy="53.5" r="4.5" stroke="black" stroke-width="4"/>
<path d="M63 82.6703C61.5965 82.6703 59.3743 82.6703 58.4386 82.6703V68.5275C58.0877 62.7253 48.9649 61.2747 47.9123 68.5275V85.5714C47.9123 87.7474 49.3158 89.5604 52.1228 89.5604H61.5965M41.5 62C41.5 62 41.5 83 41.5 87.5C41.5 92 45 96 49.5 96C54 96 57.5029 96 60.8947 96" stroke="black" stroke-width="4"/>
<path d="M96 82.6703C97.4035 82.6703 99.6257 82.6703 100.561 82.6703V68.5275C100.912 62.7253 110.035 61.2747 111.088 68.5275V85.5714C111.088 87.7474 109.684 89.5604 106.877 89.5604H97.4035M117.5 62C117.5 62 117.5 83 117.5 87.5C117.5 92 114 96 109.5 96C105 96 101.497 96 98.1053 96" stroke="black" stroke-width="4"/>
<path d="M47 96C46.6 99.9619 45.5 108.317 45 112" stroke="black" stroke-width="5"/>
<path d="M112 96C112.4 99.9619 113.5 108.317 114 112" stroke="black" stroke-width="5"/>
</svg>
