<svg width="160" height="160" viewBox="0 0 160 160" fill="none" xmlns="http://www.w3.org/2000/svg">
<rect width="160" height="160" fill="white"/>
<path d="M32.96 22.5H127.04C129.398 22.5 131.012 22.5021 132.26 22.6074C133.324 22.6973 133.948 22.8516 134.393 23.0508L134.573 23.1396C135.487 23.6233 136.245 24.3537 136.761 25.2461L136.86 25.4268C137.102 25.8835 137.29 26.5232 137.393 27.7402C137.498 28.9881 137.5 30.6016 137.5 32.96V127.04C137.5 129.398 137.498 131.012 137.393 132.26C137.303 133.324 137.148 133.948 136.949 134.393L136.86 134.573C136.377 135.487 135.646 136.245 134.754 136.761L134.573 136.86C134.117 137.102 133.477 137.29 132.26 137.393C131.012 137.498 129.398 137.5 127.04 137.5H32.96C30.6016 137.5 28.9881 137.498 27.7402 137.393C26.6756 137.303 26.0525 137.148 25.6074 136.949L25.4268 136.86C24.5132 136.377 23.7555 135.646 23.2393 134.754L23.1396 134.573C22.8979 134.117 22.7101 133.477 22.6074 132.26C22.5021 131.012 22.5 129.398 22.5 127.04V32.96C22.5 30.6016 22.5021 28.9881 22.6074 27.7402C22.6973 26.6756 22.8516 26.0525 23.0508 25.6074L23.1396 25.4268C23.6233 24.5132 24.3537 23.7555 25.2461 23.2393L25.4268 23.1396C25.8835 22.8979 26.5232 22.7101 27.7402 22.6074C28.9881 22.5021 30.6016 22.5 32.96 22.5Z" stroke="black" stroke-width="5"/>
<path d="M85.9939 97.2115C72.646 89.0891 65.972 80.6134 61.7569 72.844L70.1871 64.0151C71.9435 62.2494 71.2409 60.1305 69.4846 58.3645L57.893 47.0637C55.0829 44.9448 53.1914 46.3575 51.5703 48.1231L51.5627 48.1314C47.3552 52.7141 47.3535 52.7159 44.545 55.5394C42.4375 58.3645 41.735 59.7773 42.0863 64.0151C46.9365 86.2637 67.0258 109.572 94.0729 116.635C98.6394 117.695 101.801 116.282 103.908 114.516L111.987 106.747C113.954 104.486 112.69 102.509 111.285 101.096L99.693 89.7953C97.2343 87.6764 95.8292 88.0296 94.4242 89.0891L85.9939 97.2115Z" stroke="black" stroke-width="6"/>
<path d="M82 57C87.25 57 100.55 61.9 103 78" stroke="black" stroke-width="6"/>
<path d="M83 42C93.0612 43.0606 113.878 52.6061 117 77" stroke="black" stroke-width="6"/>
</svg>
