<svg width="160" height="160" viewBox="0 0 160 160" fill="none" xmlns="http://www.w3.org/2000/svg">
<rect width="160" height="160" fill="white"/>
<path d="M32.96 22.5H127.04C129.398 22.5 131.012 22.5021 132.26 22.6074C133.324 22.6973 133.948 22.8516 134.393 23.0508L134.573 23.1396C135.487 23.6233 136.245 24.3537 136.761 25.2461L136.86 25.4268C137.102 25.8835 137.29 26.5232 137.393 27.7402C137.498 28.9881 137.5 30.6016 137.5 32.96V127.04C137.5 129.398 137.498 131.012 137.393 132.26C137.303 133.324 137.148 133.948 136.949 134.393L136.86 134.573C136.377 135.487 135.646 136.245 134.754 136.761L134.573 136.86C134.117 137.102 133.477 137.29 132.26 137.393C131.012 137.498 129.398 137.5 127.04 137.5H32.96C30.6016 137.5 28.9881 137.498 27.7402 137.393C26.6756 137.303 26.0525 137.148 25.6074 136.949L25.4268 136.86C24.5132 136.377 23.7555 135.646 23.2393 134.754L23.1396 134.573C22.8979 134.117 22.7101 133.477 22.6074 132.26C22.5021 131.012 22.5 129.398 22.5 127.04V32.96C22.5 30.6016 22.5021 28.9881 22.6074 27.7402C22.6973 26.6756 22.8516 26.0525 23.0508 25.6074L23.1396 25.4268C23.6233 24.5132 24.3537 23.7555 25.2461 23.2393L25.4268 23.1396C25.8835 22.8979 26.5232 22.7101 27.7402 22.6074C28.9881 22.5021 30.6016 22.5 32.96 22.5Z" stroke="black" stroke-width="5"/>
<path d="M81 60C84.6934 60 88.3528 60.6823 91.7949 62.0098L92.4805 62.2832C96.1202 63.7908 99.4271 66.0014 102.213 68.7871C104.825 71.3987 106.931 74.4682 108.426 77.8408L108.717 78.5195C109.84 81.2319 110.557 84.0896 110.85 87H51.1504C51.4184 84.3336 52.043 81.7117 53.0098 79.2051L53.2832 78.5195C54.6966 75.1073 56.7278 71.9875 59.2715 69.3154L59.7871 68.7871C62.3987 66.1755 65.4682 64.0695 68.8408 62.5742L69.5195 62.2832C73.1592 60.7756 77.0604 60 81 60Z" stroke="black" stroke-width="6"/>
<path d="M80.9912 47.5C82.9469 47.5 84.6382 47.924 85.7646 48.7002C86.7591 49.3854 87.5 50.4573 87.5 52.4053C87.5 53.1601 87.5004 53.7065 86.8896 54.5039C86.2152 55.3844 84.6493 56.719 80.9922 58.291C77.3446 56.7199 75.7832 55.3859 75.1104 54.5059C74.5004 53.708 74.5 53.1608 74.5 52.4053C74.5 50.4534 75.2402 49.3817 76.2295 48.6982C77.3506 47.9239 79.0358 47.5 80.9912 47.5Z" stroke="black" stroke-width="5"/>
<rect x="48" y="60" width="18" height="6" fill="black"/>
<rect x="39" y="69" width="18" height="6" fill="black"/>
<rect x="43" y="78" width="10" height="6" fill="black"/>
<rect x="41" y="98" width="81" height="5" fill="black"/>
<circle cx="53.5" cy="107.5" r="5.5" stroke="black" stroke-width="4"/>
<circle cx="108.5" cy="107.5" r="5.5" stroke="black" stroke-width="4"/>
<path d="M43 99C43 97.455 43 96.1428 43 92.3333C43.4477 89.4762 45.686 89 47.0291 89H115.971C117.314 89 119.552 89.4762 120 92.3333C120 95.484 120 94.6896 120 99" stroke="black" stroke-width="4"/>
</svg>
