<svg width="160" height="160" viewBox="0 0 160 160" fill="none" xmlns="http://www.w3.org/2000/svg">
<rect width="160" height="160" fill="white"/>
<path d="M32.96 22.5H127.04C129.398 22.5 131.012 22.5021 132.26 22.6074C133.324 22.6973 133.948 22.8516 134.393 23.0508L134.573 23.1396C135.487 23.6233 136.245 24.3537 136.761 25.2461L136.86 25.4268C137.102 25.8835 137.29 26.5232 137.393 27.7402C137.498 28.9881 137.5 30.6016 137.5 32.96V127.04C137.5 129.398 137.498 131.012 137.393 132.26C137.303 133.324 137.148 133.948 136.949 134.393L136.86 134.573C136.377 135.487 135.646 136.245 134.754 136.761L134.573 136.86C134.117 137.102 133.477 137.29 132.26 137.393C131.012 137.498 129.398 137.5 127.04 137.5H32.96C30.6016 137.5 28.9881 137.498 27.7402 137.393C26.6756 137.303 26.0525 137.148 25.6074 136.949L25.4268 136.86C24.5132 136.377 23.7555 135.646 23.2393 134.754L23.1396 134.573C22.8979 134.117 22.7101 133.477 22.6074 132.26C22.5021 131.012 22.5 129.398 22.5 127.04V32.96C22.5 30.6016 22.5021 28.9881 22.6074 27.7402C22.6973 26.6756 22.8516 26.0525 23.0508 25.6074L23.1396 25.4268C23.6233 24.5132 24.3537 23.7555 25.2461 23.2393L25.4268 23.1396C25.8835 22.8979 26.5232 22.7101 27.7402 22.6074C28.9881 22.5021 30.6016 22.5 32.96 22.5Z" stroke="black" stroke-width="5"/>
<path d="M97 69C95.0427 71.092 91.3237 76.6207 92.1067 82" stroke="black" stroke-width="6"/>
<path d="M71.019 89.4705C71.307 81.9143 79.1749 72.9329 92.164 81.4684C114.442 73.0853 118.218 86.041 116.707 93.6621C115.423 100.14 107.645 113.096 104.247 115.763C98.2054 120.505 94.4295 116.525 92.9191 114.62C89.8984 118.811 85.4705 117.65 83.1018 115.763C75.9277 110.047 70.6414 99.3778 71.019 89.4705Z" stroke="black" stroke-width="6"/>
<path d="M80 78.2614C79.2387 77.8861 76.9546 73.3822 78.0966 67.7523C78.858 61.3718 74.6705 56.7177 68.5797 56.1172C64.7729 55.7419 61.102 56.1172 57.9207 59.4951C56.5067 60.9964 54.8752 63.2484 54.8752 68.8783C54.1139 76.3848 52.4442 77.4254 49.9264 82.39C46.881 88.3952 43.0742 93.1244 46.1196 103.033C49.2919 110.039 59.3672 122.024 78.858 112.416" stroke="black" stroke-width="6"/>
<path d="M77 42C72.5 43.9301 67.825 50.9365 66.625 53.0982M66.625 50.203C67.5 43 59.5 40 52.75 45.1365C51 46.5 52.75 45.1365 48.375 48.5142C46.2163 50.1808 44 51.8919 44 51.8919C44 51.8919 50 54.9077 50.5 55.0284C61 59.3711 65.9266 55.9525 66.625 50.203Z" stroke="black" stroke-width="6"/>
</svg>
