<svg width="160" height="160" viewBox="0 0 160 160" fill="none" xmlns="http://www.w3.org/2000/svg">
<rect width="160" height="160" fill="white"/>
<path d="M32.96 22.5H127.04C129.398 22.5 131.012 22.5021 132.26 22.6074C133.324 22.6973 133.948 22.8516 134.393 23.0508L134.573 23.1396C135.487 23.6233 136.245 24.3537 136.761 25.2461L136.86 25.4268C137.102 25.8835 137.29 26.5232 137.393 27.7402C137.498 28.9881 137.5 30.6016 137.5 32.96V127.04C137.5 129.398 137.498 131.012 137.393 132.26C137.303 133.324 137.148 133.948 136.949 134.393L136.86 134.573C136.377 135.487 135.646 136.245 134.754 136.761L134.573 136.86C134.117 137.102 133.477 137.29 132.26 137.393C131.012 137.498 129.398 137.5 127.04 137.5H32.96C30.6016 137.5 28.9881 137.498 27.7402 137.393C26.6756 137.303 26.0525 137.148 25.6074 136.949L25.4268 136.86C24.5132 136.377 23.7555 135.646 23.2393 134.754L23.1396 134.573C22.8979 134.117 22.7101 133.477 22.6074 132.26C22.5021 131.012 22.5 129.398 22.5 127.04V32.96C22.5 30.6016 22.5021 28.9881 22.6074 27.7402C22.6973 26.6756 22.8516 26.0525 23.0508 25.6074L23.1396 25.4268C23.6233 24.5132 24.3537 23.7555 25.2461 23.2393L25.4268 23.1396C25.8835 22.8979 26.5232 22.7101 27.7402 22.6074C28.9881 22.5021 30.6016 22.5 32.96 22.5Z" stroke="black" stroke-width="5"/>
<path d="M91.5582 89.6381C91.8433 83.5734 82.153 73.1767 70.4676 86.4613C60.4923 98.8795 66.1925 106.677 71.6076 111.009M91.5582 89.6381C103.529 89.9269 108.944 104.078 93.5532 114.474C82.723 120.828 75.5978 117.94 71.6076 111.009M91.5582 89.6381C90.7032 90.7933 73.0327 110.464 71.6076 111.009M91.5582 89.6381C100.964 85.595 96.9734 73.4655 95.5484 70" stroke="black" stroke-width="6"/>
<path d="M98 78.689C101.452 75.5606 111.521 71.904 119 79.4711C114.685 83.6424 105.767 86.7708 98.5753 80.26" stroke="black" stroke-width="6"/>
<path d="M83.2603 79.2855C84.1233 72.4288 84.9863 64.143 85.9313 54.7139M77.5068 117H51.3288L45.9063 54.7139M45.9063 54.7139L45 41C50.4658 41.0001 67.726 41.0001 87 41C86.7123 45.2859 86.3792 49.419 85.9313 54.7139M45.9063 54.7139C53.3425 54.7144 74.9178 54.7144 85.9313 54.7139" stroke="black" stroke-width="6"/>
<ellipse cx="78.7797" cy="94.874" rx="1.94411" ry="3.47307" transform="rotate(42.5003 78.7797 94.874)" fill="black"/>
<ellipse cx="87.7797" cy="103.874" rx="1.94411" ry="3.47307" transform="rotate(42.5003 87.7797 103.874)" fill="black"/>
</svg>
