<svg width="160" height="160" viewBox="0 0 160 160" fill="none" xmlns="http://www.w3.org/2000/svg">
<rect width="160" height="160" fill="white"/>
<path d="M32.96 22.5H127.04C129.398 22.5 131.012 22.5021 132.26 22.6074C133.324 22.6973 133.948 22.8516 134.393 23.0508L134.573 23.1396C135.487 23.6233 136.245 24.3537 136.761 25.2461L136.86 25.4268C137.102 25.8835 137.29 26.5232 137.393 27.7402C137.498 28.9881 137.5 30.6016 137.5 32.96V127.04C137.5 129.398 137.498 131.012 137.393 132.26C137.303 133.324 137.148 133.948 136.949 134.393L136.86 134.573C136.377 135.487 135.646 136.245 134.754 136.761L134.573 136.86C134.117 137.102 133.477 137.29 132.26 137.393C131.012 137.498 129.398 137.5 127.04 137.5H32.96C30.6016 137.5 28.9881 137.498 27.7402 137.393C26.6756 137.303 26.0525 137.148 25.6074 136.949L25.4268 136.86C24.5132 136.377 23.7555 135.646 23.2393 134.754L23.1396 134.573C22.8979 134.117 22.7101 133.477 22.6074 132.26C22.5021 131.012 22.5 129.398 22.5 127.04V32.96C22.5 30.6016 22.5021 28.9881 22.6074 27.7402C22.6973 26.6756 22.8516 26.0525 23.0508 25.6074L23.1396 25.4268C23.6233 24.5132 24.3537 23.7555 25.2461 23.2393L25.4268 23.1396C25.8835 22.8979 26.5232 22.7101 27.7402 22.6074C28.9881 22.5021 30.6016 22.5 32.96 22.5Z" stroke="black" stroke-width="5"/>
<path d="M73.1787 73.75V76.9677C73.1787 78.5484 73.1787 79 74.3454 79C75.2542 79 87.1787 79 93.012 79C94.1787 79 94.1787 78.2323 94.1787 76.9677C94.1787 75.7032 94.1787 73.129 94.1787 72" stroke="black" stroke-width="3"/>
<path d="M75.1787 68.5781C76.4945 75.5217 88.029 76.6154 90.1787 67" stroke="black" stroke-width="3"/>
<path d="M76.6058 60C75.7638 57.2624 75.5954 51.4728 81.6578 50.2147C87.7201 48.9566 90.531 53.5347 91.1787 55.981" stroke="black" stroke-width="3"/>
<path d="M90.1959 72C90.1959 72 89.5984 72 94.9224 72C100.246 70.7887 101.442 66.7507 101.134 62.7127C100.424 53.4254 89.066 55.4443 88.1787 58.8766" stroke="black" stroke-width="3"/>
<path d="M74.4501 56C72.2241 56 64.449 57.75 64.1787 63.8483C64.1787 67.25 65.2599 71.25 72.2877 72C75.5313 72 77.4235 72 77.1532 72" stroke="black" stroke-width="3"/>
<path d="M115.179 40.607H53.9364C52.0195 40.1312 46.5357 40.2074 46.3057 44.3183C46.0757 48.4292 46.2099 90.302 46.3057 110M113.744 108.551V37.5" stroke="black" stroke-width="6"/>
<path d="M116.5 120H48.9908C41.6787 118.5 42.6787 108 50.1787 108" stroke="black" stroke-width="6"/>
<path d="M115 118.5C111.589 115.9 110.452 112.467 115 109" stroke="black" stroke-width="3"/>
<path d="M50.1787 108L116.5 108" stroke="black" stroke-width="6"/>
<line x1="56.6787" y1="108" x2="56.6787" y2="40" stroke="black" stroke-width="3"/>
<line x1="66.1787" y1="87.5" x2="100.179" y2="87.5" stroke="black" stroke-width="3"/>
<line x1="66" y1="92.5" x2="100" y2="92.5" stroke="black" stroke-width="3"/>
<line x1="72" y1="97.5" x2="95" y2="97.5" stroke="black" stroke-width="3"/>
</svg>
